<svg id="_x31__x2C_5" height="512" viewBox="0 0 24 24" width="512" xmlns="http://www.w3.org/2000/svg"><path d="m16.8.75h-4.8v8h5.73zm-12.29 0c-1.01 0-1.86.75-1.99 1.74l-.74 6.26h4.49l.93-8z" fill="#cfd8dc"/><path d="m21.48 2.49c-.13-.99-.98-1.74-1.99-1.74h-2.69l.93 8h4.49zm-14.28-1.74-.93 8h5.73v-8z" fill="#90a4ae"/><path d="m19.48 21.25h-14.75c-1.105 0-2-.895-2-2v-10.5h18.75v10.5c0 1.105-.895 2-2 2z" fill="#cfd8dc"/><path d="m9.25 17.25h-2.5c-.552 0-1-.448-1-1v-2.5c0-.552.448-1 1-1h2.5c.552 0 1 .448 1 1v2.5c0 .552-.448 1-1 1z" fill="#90a4ae"/><path d="m17.25 24h-.5c-.965 0-1.75-.785-1.75-1.75v-3.5c0-.965.785-1.75 1.75-1.75h.5c.965 0 1.75.785 1.75 1.75v3.5c0 .965-.785 1.75-1.75 1.75zm-.5-5.5c-.138 0-.25.112-.25.25v3.5c0 .138.112.25.25.25h.5c.138 0 .25-.112.25-.25v-3.5c0-.138-.112-.25-.25-.25z"/><path d="m20.75 24c-.104 0-.209-.021-.31-.067-.377-.171-.543-.616-.372-.993l2.5-5.5c.171-.377.616-.543.993-.372s.543.616.372.993l-2.5 5.5c-.126.276-.398.439-.683.439z"/><path d="m20.75 18.5c-.414 0-.75-.336-.75-.75s.336-.75.75-.75.75.336.75.75-.336.75-.75.75z"/><path d="m23.25 24c-.414 0-.75-.336-.75-.75s.336-.75.75-.75.75.336.75.75-.336.75-.75.75z"/><path d="m11.75 24h-1c-.414 0-.75-.336-.75-.75s.336-.75.75-.75h1c.414 0 .75-.337.75-.75s-.336-.75-.75-.75h-1c-.414 0-.75-.336-.75-.75v-2.5c0-.414.336-.75.75-.75h2.5c.414 0 .75.336.75.75s-.336.75-.75.75h-1.75v1h.25c1.241 0 2.25 1.01 2.25 2.25s-1.009 2.25-2.25 2.25z"/><path d="m23.25 9.5h-22.5c-.414 0-.75-.336-.75-.75s.336-.75.75-.75h22.5c.414 0 .75.336.75.75s-.336.75-.75.75z"/><path d="m22.249 9.25c-.372 0-.694-.275-.743-.654l-.775-6.006c-.081-.621-.613-1.09-1.24-1.09h-14.983c-.626 0-1.159.469-1.24 1.09l-.774 6.006c-.054.411-.434.693-.84.648-.411-.054-.701-.43-.647-.84l.775-6.006c.176-1.367 1.348-2.398 2.726-2.398h14.983c1.378 0 2.55 1.031 2.727 2.398l.775 6.006c.053.41-.237.786-.647.84-.033.004-.065.006-.097.006z"/><path d="m6.501 9.25c-.032 0-.064-.002-.097-.006-.411-.054-.701-.43-.647-.84l1-7.75c.053-.412.43-.702.84-.648.411.054.701.43.647.84l-1 7.75c-.049.379-.371.654-.743.654z"/><path d="m12 9.25c-.414 0-.75-.336-.75-.75v-7.75c0-.414.336-.75.75-.75s.75.336.75.75v7.75c0 .414-.336.75-.75.75z"/><path d="m17.499 9.25c-.372 0-.694-.275-.743-.654l-1-7.75c-.053-.41.237-.786.647-.84.406-.054.787.236.84.648l1 7.75c.053.41-.237.786-.647.84-.033.004-.065.006-.097.006z"/><path d="m7.25 22h-2.5c-1.517 0-2.75-1.233-2.75-2.75v-10.5c0-.414.336-.75.75-.75h18.5c.414 0 .75.336.75.75v5.5c0 .414-.336.75-.75.75s-.75-.336-.75-.75v-4.75h-17v9.75c0 .689.561 1.25 1.25 1.25h2.5c.414 0 .75.336.75.75s-.336.75-.75.75z"/><path d="m6.75 18c-.965 0-1.75-.785-1.75-1.75v-2.5c0-.965.785-1.75 1.75-1.75h2.5c.965 0 1.75.785 1.75 1.75 0 .414-.336.75-.75.75s-.75-.336-.75-.75c0-.138-.112-.25-.25-.25h-2.5c-.138 0-.25.112-.25.25v2.5c0 .138.112.25.25.25.414 0 .75.336.75.75s-.336.75-.75.75z"/></svg>