<svg id="_x31__x2C_5" height="512" viewBox="0 0 24 24" width="512" xmlns="http://www.w3.org/2000/svg"><path d="m21.25.75h-7c-.86 0-1.63.36-2.18.94l-10.77 11.19c-.34.35-.55.84-.55 1.37 0 .55.22 1.05.59 1.41l7 7c.36.37.86.59 1.41.59.53 0 1.02-.21 1.37-.55l11.19-10.77c.58-.55.94-1.32.94-2.18v-7c0-1.1-.9-2-2-2z" fill="#cfd8dc"/><path d="m19 6.25c-.689 0-1.25-.561-1.25-1.25s.561-1.25 1.25-1.25 1.25.561 1.25 1.25-.561 1.25-1.25 1.25z" fill="#90a4ae"/><path d="m17.25 24h-.5c-.965 0-1.75-.785-1.75-1.75v-3.5c0-.965.785-1.75 1.75-1.75h.5c.965 0 1.75.785 1.75 1.75v3.5c0 .965-.785 1.75-1.75 1.75zm-.5-5.5c-.138 0-.25.112-.25.25v3.5c0 .138.112.25.25.25h.5c.138 0 .25-.112.25-.25v-3.5c0-.138-.112-.25-.25-.25z"/><path d="m20.75 24c-.104 0-.21-.021-.311-.067-.377-.171-.544-.616-.372-.993l2.5-5.5c.173-.378.618-.542.993-.372.377.171.544.616.372.993l-2.5 5.5c-.125.276-.398.439-.682.439z"/><path d="m20.75 18.5c-.414 0-.75-.336-.75-.75s.336-.75.75-.75.75.336.75.75-.336.75-.75.75z"/><path d="m23.25 24c-.414 0-.75-.336-.75-.75s.336-.75.75-.75.75.336.75.75-.336.75-.75.75z"/><path d="m11.75 24h-1c-.414 0-.75-.336-.75-.75s.336-.75.75-.75h1c.413 0 .75-.336.75-.75s-.337-.75-.75-.75h-1c-.414 0-.75-.336-.75-.75v-2.5c0-.414.336-.75.75-.75h2.5c.414 0 .75.336.75.75s-.336.75-.75.75h-1.75v1h.25c1.24 0 2.25 1.009 2.25 2.25s-1.01 2.25-2.25 2.25z"/><path d="m7.73 22.8c-.192 0-.384-.073-.53-.22l-6.39-6.39c-.52-.505-.81-1.197-.81-1.94 0-.704.277-1.394.762-1.893l10.768-11.187c.713-.753 1.681-1.17 2.72-1.17h7c1.517 0 2.75 1.233 2.75 2.75v7c0 1.039-.417 2.006-1.174 2.724l-3.076 2.957c-.298.288-.773.278-1.061-.021-.287-.298-.277-.773.021-1.06l3.079-2.96c.459-.436.71-1.017.71-1.64v-7c0-.689-.561-1.25-1.25-1.25h-7c-.623 0-1.204.25-1.636.706l-10.773 11.194c-.217.224-.34.533-.34.85 0 .335.129.645.363.873l6.397 6.397c.293.293.293.768 0 1.061-.146.146-.337.219-.53.219z"/><path d="m19 7c-1.103 0-2-.897-2-2s.897-2 2-2 2 .897 2 2-.897 2-2 2zm0-2.5c-.275 0-.5.224-.5.5s.225.5.5.5.5-.224.5-.5-.225-.5-.5-.5z"/></svg>