<svg id="Layer_1" enable-background="new 0 0 511 511" height="512" viewBox="0 0 511 511" width="512" xmlns="http://www.w3.org/2000/svg"><g><path d="m123 328h-79v63h79zm-64 15h17v33h-17zm49 33h-17v-33h17z"/><path d="m44 471h79v-63h-79zm64-15h-17v-33h17zm-49-33h17v33h-17z"/><path d="m467 328h-79v63h79zm-64 15h17v33h-17zm49 33h-17v-33h17z"/><path d="m388 471h79v-63h-79zm64-15h-17v-33h17zm-49-33h17v33h-17z"/><path d="m375.5 296v15h120.5v177h-137v-120.5h-15v120.5h-33v-65h16v-47h-143v47h16v65h-185v-96.5h-15v111.5h511v-207zm-79.5 192h-33v-65h33zm-97-97h113v17h-113zm16 32h33v65h-33z"/><path d="m15 311h137v160.5h15v-220.894l88.5-88.5 88.5 88.5v100.894h15v-85.894l16.5 16.5 34.606-34.606-147.106-147.106v-29.394h64v-63h-79v92.394l-147.106 147.106 34.606 34.606 16.5-16.5v30.394h-152v79.5h15zm248-288h49v33h-49zm-140.894 224.5 133.394-133.394 133.394 133.394-13.394 13.394-120-120-120 120z"/><path d="m215.5 328h16v15h-16z"/><path d="m247.5 328h16v15h-16z"/><path d="m279.5 328h16v15h-16z"/><path d="m295 255.5c0-21.78-17.72-39.5-39.5-39.5s-39.5 17.72-39.5 39.5 17.72 39.5 39.5 39.5 39.5-17.72 39.5-39.5zm-39.5 24.5c-13.509 0-24.5-10.991-24.5-24.5s10.991-24.5 24.5-24.5 24.5 10.991 24.5 24.5-10.991 24.5-24.5 24.5z"/></g></svg>